<svg id="Layer_1" data-name="Layer 1" xmlns="http://www.w3.org/2000/svg" viewBox="0 0 84.28 121.51"><defs><style>.cls-1{fill:#f3cb6d;}</style></defs><title>logo-nav</title><path class="cls-1" d="M70.832,65.755L90.412,34.3a60.61,60.61,0,0,1,6.64,26.87c-2.66,5.24-13.28,24.58-13.28,24.58ZM63.2,53.635c-2.6-4.1-13.27-21-13.27-21s19.62-7.2,37.5,0c-3.86,5.88-12.94,21-12.94,21a25.29,25.29,0,0,0-11.29-.01v0.01Zm47.78,73.39a86.251,86.251,0,0,0-15.6,3.28v20.64c-26.65-36.27-47.51-76.25-55.1-90.33,0.24-5.62,4.23-23.55,7-26.31,29.85,47.86,52.47,82.04,63.7,92.71v0.01Zm-44.13-12.78s-13.49,22.25-24.89,36.7a191.93,191.93,0,0,0,0-21c-5.72-1.39-10.93-2.5-15.26-2.62,13.82-16.54,22-28.84,26.88-35.71Z" transform="translate(-26.702 -29.435)"/></svg>