<?xml version="1.0" encoding="utf-8"?>
<!-- Generator: Adobe Illustrator 20.1.0, SVG Export Plug-In . SVG Version: 6.00 Build 0)  -->
<svg version="1.1" xmlns="http://www.w3.org/2000/svg" xmlns:xlink="http://www.w3.org/1999/xlink" x="0px" y="0px"
	 viewBox="0 0 1839.7 534.6" style="enable-background:new 0 0 1839.7 534.6;" xml:space="preserve">
<style type="text/css">
	.st0{fill:#F3CB6D;}
	.st1{fill:#FFFFFF;}
	.st2{font-family:'Pacifico';}
	.st3{font-size:158.7009px;}
</style>
<g id="Layer_2">
	<path class="st0" d="M924.4,36.3L944,4.9c4.3,8.3,6.5,17.5,6.6,26.9c-2.7,5.3-13.3,24.6-13.3,24.6L924.4,36.3z M916.8,24.2
		c-2.6-4.1-13.3-21-13.3-21s19.6-7.2,37.5,0c-3.9,5.9-12.9,21-12.9,21C924.3,23.3,920.5,23.3,916.8,24.2z M964.5,97.6
		c-5.3,0.6-10.5,1.7-15.6,3.3v20.6c-26.7-36.3-47.5-76.2-55.1-90.3c0.2-5.6,4.2-23.5,7-26.3C930.7,52.7,953.3,86.9,964.5,97.6z
		 M920.4,84.8c0,0-13.5,22.2-24.9,36.7c0.4-7,0.4-14,0-21c-5.7-1.4-10.9-2.5-15.3-2.6c13.8-16.5,22-28.9,26.9-35.7L920.4,84.8z"/>
	<rect x="354.3" y="59.5" class="st0" width="461.2" height="2.5"/>
	<rect x="1029.5" y="59.5" class="st0" width="461.2" height="2.5"/>
</g>
<g id="Camada_2">
	<g>
		<path class="st1" d="M326.2,533.5h-4.6l16.7-38.5h3.8l16.7,38.5h-4.6l-4.2-10.1h-19.7L326.2,533.5z M331.9,519.8h16.7l-8.3-20.2
			L331.9,519.8z"/>
		<path class="st1" d="M486.5,527.6h0.1l12.6-32.6h4.2l-15,38.5h-3.9L469.9,495h4.3L486.5,527.6z"/>
		<path class="st1" d="M560.5,533.5h-3.9V495h3.9V533.5z"/>
		<path class="st1" d="M618.4,495h12.8c2.4,0,4.8,0.4,7.2,1.2c2.4,0.8,4.6,2,6.5,3.6c1.9,1.6,3.5,3.6,4.7,6c1.2,2.4,1.8,5.2,1.8,8.4
			c0,3.2-0.6,6-1.8,8.4s-2.8,4.4-4.7,6c-1.9,1.6-4.1,2.8-6.5,3.6c-2.4,0.8-4.8,1.2-7.2,1.2h-12.8V495z M622.3,529.9h7.6
			c2.9,0,5.5-0.4,7.6-1.3c2.2-0.9,3.9-2.1,5.4-3.5c1.4-1.5,2.5-3.1,3.2-5c0.7-1.9,1-3.8,1-5.8c0-2-0.3-3.9-1-5.8
			c-0.7-1.9-1.7-3.5-3.2-5c-1.4-1.5-3.2-2.6-5.4-3.5c-2.2-0.9-4.7-1.3-7.6-1.3h-7.6V529.9z"/>
		<path class="st1" d="M706.6,533.5h-4.6l16.7-38.5h3.8l16.7,38.5h-4.6l-4.2-10.1h-19.7L706.6,533.5z M712.3,519.8H729l-8.3-20.2
			L712.3,519.8z"/>
		<path class="st1" d="M887.5,527.4c-0.7,1-1.5,1.9-2.4,2.8c-1,0.9-2.1,1.6-3.3,2.3s-2.6,1.1-4,1.5c-1.4,0.4-2.9,0.5-4.5,0.5
			c-2.9,0-5.5-0.5-8-1.5c-2.4-1-4.6-2.4-6.4-4.2c-1.8-1.8-3.2-3.9-4.2-6.4c-1-2.5-1.5-5.2-1.5-8.1c0-2.9,0.5-5.6,1.5-8.1
			c1-2.5,2.4-4.6,4.2-6.4c1.8-1.8,3.9-3.2,6.4-4.2c2.4-1,5.1-1.5,8-1.5c2.4,0,4.8,0.5,7.2,1.4c2.4,0.9,4.4,2.5,6.1,4.7l-3.4,2.6
			c-0.4-0.6-0.9-1.2-1.6-1.8c-0.7-0.6-1.5-1.2-2.4-1.6c-0.9-0.5-1.8-0.9-2.9-1.1c-1-0.3-2-0.4-3-0.4c-2.5,0-4.7,0.5-6.6,1.4
			c-2,0.9-3.6,2.1-5,3.6c-1.4,1.5-2.4,3.3-3.1,5.3c-0.7,2-1.1,4.1-1.1,6.3c0,2.2,0.4,4.3,1.1,6.3c0.7,2,1.8,3.8,3.1,5.3
			c1.4,1.5,3,2.7,5,3.6c2,0.9,4.2,1.4,6.6,1.4c1,0,2-0.1,3-0.3c1-0.2,2-0.5,2.9-0.9c1-0.4,1.9-1,2.7-1.8c0.8-0.7,1.6-1.7,2.4-2.8
			L887.5,527.4z"/>
		<path class="st1" d="M979.6,514.2c0,2.9-0.5,5.6-1.5,8.1c-1,2.5-2.4,4.6-4.2,6.4c-1.8,1.8-3.9,3.2-6.4,4.2c-2.4,1-5.1,1.5-8,1.5
			c-2.9,0-5.5-0.5-8-1.5c-2.4-1-4.6-2.4-6.4-4.2c-1.8-1.8-3.2-3.9-4.2-6.4c-1-2.5-1.5-5.2-1.5-8.1c0-2.9,0.5-5.6,1.5-8.1
			c1-2.5,2.4-4.6,4.2-6.4c1.8-1.8,3.9-3.2,6.4-4.2c2.4-1,5.1-1.5,8-1.5c2.9,0,5.5,0.5,8,1.5c2.4,1,4.6,2.4,6.4,4.2
			c1.8,1.8,3.2,3.9,4.2,6.4C979.1,508.6,979.6,511.3,979.6,514.2z M975.3,514.2c0-2.2-0.4-4.3-1.1-6.3c-0.7-2-1.8-3.8-3.1-5.3
			c-1.4-1.5-3-2.7-5-3.6c-2-0.9-4.2-1.4-6.6-1.4c-2.5,0-4.7,0.5-6.6,1.4c-2,0.9-3.6,2.1-5,3.6c-1.4,1.5-2.4,3.3-3.1,5.3
			c-0.7,2-1.1,4.1-1.1,6.3c0,2.2,0.4,4.3,1.1,6.3c0.7,2,1.8,3.8,3.1,5.3c1.4,1.5,3,2.7,5,3.6c2,0.9,4.2,1.4,6.6,1.4
			c2.5,0,4.7-0.5,6.6-1.4c2-0.9,3.6-2.1,5-3.6c1.4-1.5,2.4-3.3,3.1-5.3S975.3,516.4,975.3,514.2z"/>
		<path class="st1" d="M1063.3,527.6h0.1V495h3.9v38.5h-4.9l-22.9-32.9h-0.1v32.9h-3.9V495h4.9L1063.3,527.6z"/>
		<path class="st1" d="M1138.1,533.5h-3.9v-34.9h-12.9V495h29.7v3.6h-12.9V533.5z"/>
		<path class="st1" d="M1208.9,533.5h-3.9V495h3.9V533.5z"/>
		<path class="st1" d="M1295.2,527.6h0.1V495h3.9v38.5h-4.9l-22.9-32.9h-0.1v32.9h-3.9V495h4.9L1295.2,527.6z"/>
		<path class="st1" d="M1385.3,519.1c0,1.6-0.2,3.3-0.6,5.1c-0.4,1.8-1.1,3.5-2.1,5c-1.1,1.5-2.5,2.8-4.3,3.8c-1.8,1-4.2,1.5-7,1.5
			c-2.9,0-5.3-0.5-7.1-1.5s-3.2-2.3-4.3-3.8c-1.1-1.5-1.8-3.2-2.1-5c-0.4-1.8-0.6-3.5-0.6-5.1V495h3.9v23.7c0,1.8,0.2,3.4,0.5,4.8
			c0.4,1.3,0.8,2.4,1.4,3.3c0.6,0.9,1.3,1.6,2,2.1c0.7,0.5,1.5,0.9,2.2,1.2c0.7,0.3,1.5,0.5,2.1,0.6c0.7,0.1,1.3,0.1,1.8,0.1
			c0.5,0,1.1,0,1.8-0.1c0.7-0.1,1.4-0.3,2.2-0.6c0.7-0.3,1.5-0.7,2.2-1.2c0.7-0.5,1.4-1.2,2-2.1c0.6-0.9,1.1-2,1.4-3.3
			c0.4-1.3,0.5-2.9,0.5-4.8V495h3.9V519.1z"/>
		<path class="st1" d="M1442.4,533.5h-4.6l16.7-38.5h3.8l16.7,38.5h-4.6l-4.2-10.1h-19.7L1442.4,533.5z M1448.1,519.8h16.7
			l-8.3-20.2L1448.1,519.8z"/>
	</g>
	<text transform="matrix(1 0 0 1 -9.9593 375.5091)" class="st1 st2 st3">Ajude-me a Vencer o Câncer!</text>
</g>
</svg>
