<?xml version="1.0" encoding="utf-8"?>
<!-- Generator: Adobe Illustrator 20.1.0, SVG Export Plug-In . SVG Version: 6.00 Build 0)  -->
<svg version="1.1" xmlns="http://www.w3.org/2000/svg" xmlns:xlink="http://www.w3.org/1999/xlink" x="0px" y="0px"
	 viewBox="0 0 1839.7 534.6" style="enable-background:new 0 0 1839.7 534.6;" xml:space="preserve">
<style type="text/css">
	.st0{fill:#F3CB6D;}
	.st1{fill:#FFFFFF;}
	.st2{font-family:'Pacifico';}
	.st3{font-size:158.7009px;}
</style>
<g id="Layer_2">
	<path class="st0" d="M924.5,36.3L944,4.9c4.3,8.3,6.5,17.5,6.6,26.9c-2.7,5.3-13.3,24.6-13.3,24.6L924.5,36.3z M916.8,24.2
		c-2.6-4.1-13.3-21-13.3-21s19.6-7.2,37.5,0c-3.9,5.9-12.9,21-12.9,21C924.4,23.3,920.5,23.3,916.8,24.2z M964.6,97.6
		c-5.3,0.6-10.5,1.7-15.6,3.3v20.6c-26.7-36.3-47.5-76.2-55.1-90.3c0.2-5.6,4.2-23.5,7-26.3C930.8,52.7,953.4,86.9,964.6,97.6z
		 M920.5,84.8c0,0-13.5,22.2-24.9,36.7c0.4-7,0.4-14,0-21c-5.7-1.4-10.9-2.5-15.3-2.6c13.8-16.5,22-28.9,26.9-35.7L920.5,84.8z"/>
	<rect x="354.3" y="59.5" class="st0" width="461.2" height="2.5"/>
	<rect x="1029.5" y="59.5" class="st0" width="461.2" height="2.5"/>
</g>
<g id="Camada_2">
	<g>
		<path class="st1" d="M465.8,529.9h17.9v3.6h-21.8V495h3.9V529.9z"/>
		<path class="st1" d="M541,533.5h-3.9V495h3.9V533.5z"/>
		<path class="st1" d="M603.4,533.5h-3.9V495h23.2v3.6h-19.3v13.1h17.9v3.6h-17.9V533.5z"/>
		<path class="st1" d="M681.6,529.9h20.6v3.6h-24.5V495h23.9v3.6h-19.9v13.1h18.6v3.6h-18.6V529.9z"/>
		<path class="st1" d="M849.6,502.1c-1.3-1.4-2.9-2.5-4.7-3.3c-1.8-0.8-3.9-1.2-6.3-1.2c-2.5,0-4.7,0.5-6.6,1.4
			c-2,0.9-3.6,2.1-5,3.6c-1.4,1.5-2.4,3.3-3.1,5.3c-0.7,2-1.1,4.1-1.1,6.3c0,2.2,0.4,4.3,1.1,6.3c0.7,2,1.8,3.8,3.1,5.3
			c1.4,1.5,3,2.7,5,3.6c2,0.9,4.2,1.4,6.6,1.4c2,0,3.9-0.2,5.7-0.7c1.8-0.5,3.5-1.1,4.9-2v-12.9h-9.2v-3.6h13.1v18.9
			c-2.2,1.3-4.6,2.2-7.1,2.9c-2.6,0.7-5.1,1-7.4,1c-2.9,0-5.5-0.5-8-1.5c-2.4-1-4.6-2.4-6.4-4.2c-1.8-1.8-3.2-3.9-4.2-6.4
			c-1-2.5-1.5-5.2-1.5-8.1c0-2.9,0.5-5.6,1.5-8.1c1-2.5,2.4-4.6,4.2-6.4c1.8-1.8,3.9-3.2,6.4-4.2c2.4-1,5.1-1.5,8-1.5
			c3.1,0,5.7,0.4,8,1.3c2.2,0.9,4.2,2.1,6,3.9L849.6,502.1z"/>
		<path class="st1" d="M949,514.2c0,2.9-0.5,5.6-1.5,8.1c-1,2.5-2.4,4.6-4.2,6.4c-1.8,1.8-3.9,3.2-6.4,4.2c-2.4,1-5.1,1.5-8,1.5
			c-2.9,0-5.5-0.5-8-1.5c-2.4-1-4.6-2.4-6.4-4.2c-1.8-1.8-3.2-3.9-4.2-6.4c-1-2.5-1.5-5.2-1.5-8.1c0-2.9,0.5-5.6,1.5-8.1
			c1-2.5,2.4-4.6,4.2-6.4c1.8-1.8,3.9-3.2,6.4-4.2c2.4-1,5.1-1.5,8-1.5c2.9,0,5.5,0.5,8,1.5c2.4,1,4.6,2.4,6.4,4.2
			c1.8,1.8,3.2,3.9,4.2,6.4C948.5,508.6,949,511.3,949,514.2z M944.7,514.2c0-2.2-0.4-4.3-1.1-6.3c-0.7-2-1.8-3.8-3.1-5.3
			c-1.4-1.5-3-2.7-5-3.6c-2-0.9-4.2-1.4-6.6-1.4c-2.5,0-4.7,0.5-6.6,1.4c-2,0.9-3.6,2.1-5,3.6c-1.4,1.5-2.4,3.3-3.1,5.3
			c-0.7,2-1.1,4.1-1.1,6.3c0,2.2,0.4,4.3,1.1,6.3c0.7,2,1.8,3.8,3.1,5.3c1.4,1.5,3,2.7,5,3.6c2,0.9,4.2,1.4,6.6,1.4
			c2.5,0,4.7-0.5,6.6-1.4c2-0.9,3.6-2.1,5-3.6c1.4-1.5,2.4-3.3,3.1-5.3C944.4,518.5,944.7,516.4,944.7,514.2z"/>
		<path class="st1" d="M1008.8,529.9h20.6v3.6h-24.5V495h23.9v3.6h-19.9v13.1h18.6v3.6h-18.6V529.9z"/>
		<path class="st1" d="M1103.3,501.3c-1.7-2.5-4.2-3.8-7.4-3.8c-1,0-2,0.1-3,0.4c-1,0.3-1.9,0.7-2.6,1.2s-1.4,1.3-1.9,2.2
			c-0.5,0.9-0.7,1.9-0.7,3.1c0,1.7,0.5,3.1,1.5,4c1,1,2.2,1.7,3.6,2.4c1.4,0.6,3,1.2,4.8,1.7c1.7,0.5,3.3,1.1,4.8,2
			c1.4,0.8,2.7,1.9,3.6,3.2c1,1.3,1.5,3.2,1.5,5.5c0,1.7-0.4,3.3-1.1,4.7c-0.7,1.4-1.7,2.6-2.9,3.5c-1.2,0.9-2.6,1.7-4.1,2.2
			c-1.5,0.5-3,0.8-4.5,0.8c-2.4,0-4.6-0.4-6.7-1.3c-2.1-0.9-3.9-2.3-5.4-4.4l3.6-2.6c0.8,1.4,2,2.5,3.5,3.4c1.5,0.9,3.2,1.3,5.3,1.3
			c1,0,2-0.2,2.9-0.5c1-0.3,1.9-0.8,2.6-1.4s1.4-1.3,1.9-2.2c0.5-0.9,0.8-1.9,0.8-3c0-1.3-0.3-2.5-0.8-3.3c-0.6-0.9-1.3-1.6-2.2-2.2
			c-0.9-0.6-2-1.1-3.2-1.5c-1.2-0.4-2.4-0.8-3.6-1.2s-2.5-0.9-3.6-1.4c-1.2-0.5-2.2-1.1-3.2-1.9s-1.7-1.8-2.2-2.9
			c-0.6-1.2-0.8-2.7-0.8-4.4c0-1.8,0.4-3.5,1.1-4.8c0.7-1.4,1.6-2.5,2.8-3.4c1.2-0.9,2.5-1.6,4-2s3-0.7,4.6-0.7c2.2,0,4.1,0.3,5.9,1
			c1.8,0.7,3.4,1.9,4.9,3.6L1103.3,501.3z"/>
		<path class="st1" d="M1264,514.2c0,2.9-0.5,5.6-1.5,8.1c-1,2.5-2.4,4.6-4.2,6.4c-1.8,1.8-3.9,3.2-6.4,4.2c-2.4,1-5.1,1.5-8,1.5
			c-2.9,0-5.5-0.5-8-1.5c-2.4-1-4.6-2.4-6.4-4.2c-1.8-1.8-3.2-3.9-4.2-6.4c-1-2.5-1.5-5.2-1.5-8.1c0-2.9,0.5-5.6,1.5-8.1
			c1-2.5,2.4-4.6,4.2-6.4c1.8-1.8,3.9-3.2,6.4-4.2c2.4-1,5.1-1.5,8-1.5c2.9,0,5.5,0.5,8,1.5c2.4,1,4.6,2.4,6.4,4.2
			c1.8,1.8,3.2,3.9,4.2,6.4C1263.5,508.6,1264,511.3,1264,514.2z M1259.8,514.2c0-2.2-0.4-4.3-1.1-6.3c-0.7-2-1.8-3.8-3.1-5.3
			c-1.4-1.5-3-2.7-5-3.6c-2-0.9-4.2-1.4-6.6-1.4c-2.5,0-4.7,0.5-6.6,1.4c-2,0.9-3.6,2.1-5,3.6c-1.4,1.5-2.4,3.3-3.1,5.3
			c-0.7,2-1.1,4.1-1.1,6.3c0,2.2,0.4,4.3,1.1,6.3c0.7,2,1.8,3.8,3.1,5.3c1.4,1.5,3,2.7,5,3.6c2,0.9,4.2,1.4,6.6,1.4
			c2.5,0,4.7-0.5,6.6-1.4c2-0.9,3.6-2.1,5-3.6c1.4-1.5,2.4-3.3,3.1-5.3S1259.8,516.4,1259.8,514.2z"/>
		<path class="st1" d="M1347.7,527.6h0.1V495h3.9v38.5h-4.9l-22.9-32.9h-0.1v32.9h-3.9V495h4.9L1347.7,527.6z"/>
	</g>
	<text transform="matrix(1 0 0 1 226.9851 375.5091)" class="st1 st2 st3">Help me Beat Cancer</text>
</g>
</svg>
