<svg id="Layer_2" data-name="Layer 2" xmlns="http://www.w3.org/2000/svg" viewBox="0 0 1839.681 534.592"><defs><style>.cls-1{fill:#f3cb6d;}.cls-2{isolation:isolate;}.cls-3{fill:#fff;}</style></defs><title>logo5</title><path class="cls-1" d="M928.953,36.29l19.57-31.45a60.61,60.61,0,0,1,6.64,26.87c-2.65,5.29-13.27,24.57-13.27,24.57Zm-7.63-12.12c-2.6-4.1-13.27-21-13.27-21s19.62-7.2,37.5,0c-3.86,5.88-12.94,21-12.94,21A25.29,25.29,0,0,0,921.323,24.17ZM969.1,97.56a86.249,86.249,0,0,0-15.6,3.28v20.64c-26.65-36.27-47.51-76.25-55.1-90.33,0.19-5.62,4.19-23.55,6.99-26.31C935.253,52.71,957.873,86.9,969.1,97.56Zm-44.13-12.77s-13.49,22.25-24.89,36.7a191.93,191.93,0,0,0,0-21c-5.72-1.39-10.93-2.5-15.26-2.62,13.77-16.51,22.03-28.87,26.87-35.69Z" transform="translate(-4.461 0.03)"/><rect class="cls-1" x="354.287" y="59.53" width="461.25" height="2.48"/><rect class="cls-1" x="1029.467" y="59.53" width="461.25" height="2.48"/><g class="cls-2"><path class="cls-3" d="M139.38,358.16q-1.627,1.708-4.146,3.875t-5.657,4.379q-3.138,2.209-6.781,4.3a71.81,71.81,0,0,1-7.439,3.721,51.374,51.374,0,0,1-7.633,2.6,30.106,30.106,0,0,1-7.357.969,15.126,15.126,0,0,1-4.933-.854,10.68,10.68,0,0,1-4.512-3.137,17.547,17.547,0,0,1-3.326-6.316,34.828,34.828,0,0,1-1.3-10.463,48.462,48.462,0,0,1,.382-5.85q0.382-3.141.994-6.781a141.183,141.183,0,0,1-9.8,16.777,51,51,0,0,1-11.62,12.555,49.014,49.014,0,0,1-12.743,6.857,39.318,39.318,0,0,1-13.169,2.326,37.4,37.4,0,0,1-13.678-2.52,32.584,32.584,0,0,1-11.43-7.518,35.927,35.927,0,0,1-7.866-12.437Q4.461,353.2,4.461,340.646A75.863,75.863,0,0,1,6.2,324.916a102.371,102.371,0,0,1,5.07-16.584,128.574,128.574,0,0,1,8.05-16.584,116.914,116.914,0,0,1,23.956-29.333,90.842,90.842,0,0,1,15.287-10.927,80.488,80.488,0,0,1,17.106-7.245,65.934,65.934,0,0,1,18.654-2.635,16.483,16.483,0,0,1,4.168.426,6.414,6.414,0,0,1,2.371,1.085,3.058,3.058,0,0,1,1.031,1.356,4.039,4.039,0,0,1,.23,1.239,5.737,5.737,0,0,1-.039.7,4.155,4.155,0,0,0-.038.465v0.387a11.19,11.19,0,0,0,4.31,1.512q2.194,0.272,4.311.465a18.02,18.02,0,0,1,4,.813,6.907,6.907,0,0,1,3.292,2.441,13.949,13.949,0,0,1,2.232,5.309,42.929,42.929,0,0,1,.824,9.454,77.648,77.648,0,0,1-.8,10.493q-0.8,5.83-2.255,12.184t-3.278,12.887q-1.824,6.53-3.684,12.611t-3.541,11.525q-1.682,5.443-3.125,9.467-0.291,3.4-.482,6.342t-0.192,6.109q0,2.476.116,4.063a10.652,10.652,0,0,0,.426,2.514,2.318,2.318,0,0,0,.852,1.275,2.536,2.536,0,0,0,1.4.348,12.554,12.554,0,0,0,3.914-.814,47.352,47.352,0,0,0,5.037-2.092q2.674-1.277,5.58-2.867t5.58-3.178q2.674-1.588,5-2.906t3.875-2.17Zm-36.424-100.2a36.6,36.6,0,0,0-5.654-1.123,47.774,47.774,0,0,0-5.653-.349,33.645,33.645,0,0,0-12.386,2.4,54.529,54.529,0,0,0-11.882,6.548A74.092,74.092,0,0,0,56.389,275.2a112.156,112.156,0,0,0-9.753,12.088,121.143,121.143,0,0,0-8.167,13.445,129.357,129.357,0,0,0-6.27,13.912,91.889,91.889,0,0,0-4.026,13.482,58.253,58.253,0,0,0-1.393,12.051q0,13.564,4.378,19.568t13.6,6.006a25.468,25.468,0,0,0,10.888-2.4,39.652,39.652,0,0,0,9.571-6.316,41.748,41.748,0,0,0,8.1-10.152q3.68-6.237,6.432-11.275a78.9,78.9,0,0,0,4.533-9.725,62.287,62.287,0,0,0,2.558-8.1Z" transform="translate(-4.461 0.03)"/><path class="cls-3" d="M119.774,375.52a29.489,29.489,0,0,1,.548-4.334q0.549-3.105,1.465-7.516t1.819-9.838q0.9-5.429,1.851-11.123t2.054-12.232q1.106-6.539,2.286-11.48t2.4-8.756a33.026,33.026,0,0,1,2.4-5.916,8.817,8.817,0,0,1,2.433-2.8,9.707,9.707,0,0,1,3.061-1.479,16.831,16.831,0,0,1,3.467-.584q1.805-.114,3.577-0.117a4.544,4.544,0,0,1,3.913,1.627,5.664,5.664,0,0,1,1.2,3.41,16.134,16.134,0,0,1-.426,2.947q-0.427,2.016-1.046,4.34t-1.24,4.416q-0.543,1.939-.93,3.1l-4.34,14.184q4.34-.7,8.37-0.969t8.834-1.008a87.451,87.451,0,0,0,10.849-2.48,115.042,115.042,0,0,0,14.414-5.465v14.881a51.954,51.954,0,0,1-10.268,4.3,81.019,81.019,0,0,1-9.338,2.207,60.988,60.988,0,0,1-9.532.932,108.228,108.228,0,0,1,3.383,10.463q1.026,4.787,2.232,10.412a54.092,54.092,0,0,1,1.2,11.357q0,1-.194,4.688t-0.93,8.641a82.135,82.135,0,0,1-2.325,10.5,42.748,42.748,0,0,1-4.339,10.152,25.5,25.5,0,0,1-6.9,7.633,16.71,16.71,0,0,1-10.113,3.021,13.887,13.887,0,0,1-9.222-3.178,22.319,22.319,0,0,1-6.161-9.221,60.779,60.779,0,0,1-3.41-14.8A169.357,169.357,0,0,1,119.774,375.52Zm17.2-97.83a13.233,13.233,0,0,1,3.293-8.332,13.975,13.975,0,0,1,4.649-3.364,16.966,16.966,0,0,1,7.246-1.369,20.284,20.284,0,0,1,5.115.626,12.407,12.407,0,0,1,4.185,1.917,9.1,9.1,0,0,1,2.829,3.4,11.167,11.167,0,0,1,1.046,5.006,15.909,15.909,0,0,1-.852,5.162,12.05,12.05,0,0,1-2.712,4.459,13.951,13.951,0,0,1-4.688,3.168,17.154,17.154,0,0,1-6.781,1.213q-6.82,0-10.075-3.246A11.665,11.665,0,0,1,136.978,277.689Zm4.906,63.182q-1.573,12.067-3.162,24.287a195.433,195.433,0,0,0-1.59,25.24,38.6,38.6,0,0,0,.542,7.092,19.841,19.841,0,0,0,1.356,4.572,7.858,7.858,0,0,0,1.627,2.479,2.3,2.3,0,0,0,1.434.736q2.558,0,4.069-2.791a23.083,23.083,0,0,0,2.247-6.906,65.631,65.631,0,0,0,.93-8.885q0.193-4.772.194-8.727,0-2.253-.262-5.082a54.678,54.678,0,0,0-.871-5.834q-0.609-3-1.231-6.074t-1.24-6.117Q144.112,348.062,141.884,340.871Z" transform="translate(-4.461 0.03)"/><path class="cls-3" d="M237.954,303.295q0,2.095-.139,5.7a54.861,54.861,0,0,1-.934,7.869q-0.794,4.266-1.918,10.316t-1.862,10.01q-0.738,3.961-1.29,6.93a26.689,26.689,0,0,0-.552,4.316q0,2.18.066,4.006a15.9,15.9,0,0,0,.4,3.189,4.559,4.559,0,0,0,1.039,2.1,2.7,2.7,0,0,0,2.045.738,12.942,12.942,0,0,0,4.146-.854,39.256,39.256,0,0,0,5.192-2.3q2.75-1.438,5.619-3.268t5.463-3.85q2.6-2.024,4.727-4.008a31.194,31.194,0,0,0,3.449-3.7q0,2.569.039,4.668t0.039,4.008q0,1.907.039,3.93t0.039,4.512a43.744,43.744,0,0,1-4.223,3.594q-2.52,1.91-5.58,3.822t-6.51,3.67a71.988,71.988,0,0,1-6.936,3.1,55.052,55.052,0,0,1-6.814,2.141,26.432,26.432,0,0,1-6.171.8,10.033,10.033,0,0,1-4.952-1.145,10.866,10.866,0,0,1-3.542-3.211,19.843,19.843,0,0,1-2.514-4.928,50.63,50.63,0,0,1-1.79-6.379,64.144,64.144,0,0,1-5.9,6.615,48.725,48.725,0,0,1-6.324,5.236,31.145,31.145,0,0,1-6.518,3.48,17.892,17.892,0,0,1-6.4,1.262,13.33,13.33,0,0,1-4.785-.852,9.862,9.862,0,0,1-3.975-2.867,14.48,14.48,0,0,1-2.74-5.307,28.435,28.435,0,0,1-1-8.172q0.08-10.148,1.55-15.57,2.32-7.91,4.33-23.576,0.21-1.143.575-3.127a35.548,35.548,0,0,1,1.1-4.309,42.787,42.787,0,0,1,1.821-4.727,22.259,22.259,0,0,1,2.557-4.34,12.963,12.963,0,0,1,3.449-3.178,8.752,8.752,0,0,1,4.456-1.318q4.107,0.2,5.89,1.332a3.3,3.3,0,0,1,1.783,2.811q-0.7,5.229-1.567,10.047t-1.749,9.715q-0.879,4.893-1.956,10.883t-1.727,9.605q-0.65,3.615-1.05,5.844t-0.4,2.309a13.608,13.608,0,0,0,.272,2.76,8.976,8.976,0,0,0,.816,2.359,4.919,4.919,0,0,0,1.4,1.68,3.287,3.287,0,0,0,2.022.639,7.7,7.7,0,0,0,3.5-.908,11.5,11.5,0,0,0,3.344-2.643,14.617,14.617,0,0,0,2.877-4.1,21.407,21.407,0,0,0,1.867-5.682l8.544-42.23q0.374-1.86,3.03-3.139a13.727,13.727,0,0,1,6.024-1.279,11.409,11.409,0,0,1,6.06,1.4A4.113,4.113,0,0,1,237.954,303.295Z" transform="translate(-4.461 0.03)"/><path class="cls-3" d="M342.741,359.395a130.658,130.658,0,0,1-10.85,8.064q-2.249,1.482-4.727,2.924t-4.882,2.551a37.649,37.649,0,0,1-4.669,1.811,14.165,14.165,0,0,1-4.152.7,16.452,16.452,0,0,1-3.292-.494,16.878,16.878,0,0,1-4.761-2.018,22.281,22.281,0,0,1-5.157-4.4,25.594,25.594,0,0,1-4.481-7.654,76.782,76.782,0,0,1-6.1,5.637,47.1,47.1,0,0,1-6.686,4.648,39.648,39.648,0,0,1-7,3.168,22.143,22.143,0,0,1-7.112,1.191,17.334,17.334,0,0,1-8.718-2.094,18.688,18.688,0,0,1-6.122-5.576,25.1,25.1,0,0,1-3.643-7.9,34.613,34.613,0,0,1-1.2-9.131,42.171,42.171,0,0,1,1.279-10.186,47.591,47.591,0,0,1,3.72-9.99q2.441-4.837,5.425-10.107a37.111,37.111,0,0,1,7.9-9.6,37.724,37.724,0,0,1,10.113-6.527,37.118,37.118,0,0,1,11.082-2.754,81.941,81.941,0,0,1,2.137-17.738q1.9-7.673,4.1-16.508a89.412,89.412,0,0,1,5.663-16.275,70.029,70.029,0,0,1,7.6-12.863,36.107,36.107,0,0,1,8.808-8.484,17.423,17.423,0,0,1,9.665-3.062,10.1,10.1,0,0,1,6.2,1.9,14.068,14.068,0,0,1,4.146,5.046,25.514,25.514,0,0,1,2.286,7.3,51.74,51.74,0,0,1,.7,8.578q0,2.763-.051,5.681a69.191,69.191,0,0,1-3.433,20.711q-3.211,9.583-6.349,18.949a157.783,157.783,0,0,1-7.569,18.531q-6.77,14.027-8.623,19.043-0.4,1.1-.805,2.662t-0.767,3.41q-0.363,1.84-.6,3.762a29.864,29.864,0,0,0-.241,3.721,33.443,33.443,0,0,0,.264,4.311,16.273,16.273,0,0,0,.869,3.645,6.494,6.494,0,0,0,1.623,2.545,3.58,3.58,0,0,0,2.528.939,10.107,10.107,0,0,0,3.216-.586,25.16,25.16,0,0,0,3.681-1.6q1.936-1.014,3.914-2.3t3.836-2.619q4.26-3.123,8.912-7.109Zm-53.718-45.766a30.793,30.793,0,0,0-15.77,17.424q-2.674,6.721-4.068,11.564a31.931,31.931,0,0,0-1.4,8.752,8.744,8.744,0,0,0,.349,2.426,5.2,5.2,0,0,0,1.279,2.184,6.685,6.685,0,0,0,2.635,1.576,13.418,13.418,0,0,0,4.417.605,6.586,6.586,0,0,0,2.753-.617,12.308,12.308,0,0,0,2.6-1.615,19.1,19.1,0,0,0,2.365-2.268,25.927,25.927,0,0,0,2.056-2.646,45.1,45.1,0,0,0,3.956-7.146,26.453,26.453,0,0,1-.393-3.477q-0.157-2.382-.236-7.268t-0.156-8.008q-0.08-3.126-.119-5.705t-0.116-4.221A5.176,5.176,0,0,0,289.023,313.629Zm36.561-52.871q0.481-5.427.482-8.606a15.527,15.527,0,0,0-.749-5.815,2.357,2.357,0,0,0-2.166-1.628q-2.523,0-4.571,3.139a26.74,26.74,0,0,0-3.293,8.093q-1.246,4.956-2.708,10.772a92.061,92.061,0,0,0-2.138,11.4q-0.676,5.575-1.082,10.053t-0.575,6.361q-0.338,3.85-.55,7.422t-0.3,6.52q-0.085,2.944-.084,5.143v4.164q4.31-10.324,7.942-20.568,1.511-4.368,2.99-9.109t2.932-9.408q1.452-4.667,2.459-9.241A74.587,74.587,0,0,0,325.584,260.758Z" transform="translate(-4.461 0.03)"/><path class="cls-3" d="M364.387,375.52a28.238,28.238,0,0,1-12.663-2.682,26.29,26.29,0,0,1-9.045-7.217,31.147,31.147,0,0,1-5.427-10.49,42.789,42.789,0,0,1-1.809-12.5,39.653,39.653,0,0,1,1.619-10.211q1.619-5.927,3.353-10.516a48.763,48.763,0,0,1,4.354-8.758A34.838,34.838,0,0,1,350.9,305.8a28.306,28.306,0,0,1,7.862-5.049,24.216,24.216,0,0,1,9.673-1.875,22.819,22.819,0,0,1,8.068,1.395,19.726,19.726,0,0,1,6.479,3.908,17.706,17.706,0,0,1,4.306,6.076,19.756,19.756,0,0,1,1.552,7.971,22.617,22.617,0,0,1-3.146,10.533,42.175,42.175,0,0,1-7.339,10,46.2,46.2,0,0,1-9.979,7.426,54.053,54.053,0,0,1-12.542,5.078,23.979,23.979,0,0,0,2.294,3.41,10.281,10.281,0,0,0,2.294,2.121,7.708,7.708,0,0,0,2.45,1.061,11.936,11.936,0,0,0,2.762.3,29.406,29.406,0,0,0,9.8-1.818,64.381,64.381,0,0,0,10.036-4.547,85.246,85.246,0,0,0,9.222-5.947,78.745,78.745,0,0,0,7.362-6.1l10,10.154A103.185,103.185,0,0,1,397.56,362.75q-3.333,2.4-7.168,4.711a64.222,64.222,0,0,1-8.06,4.109,54.652,54.652,0,0,1-8.757,2.871A39.48,39.48,0,0,1,364.387,375.52Zm-10.346-36.908a15.736,15.736,0,0,0,6.106-1.4,27.6,27.6,0,0,0,6.145-3.6,29.354,29.354,0,0,0,5.562-5.91q2.723-3.712,2.723-6.137a11.006,11.006,0,0,0-1.283-5.607,3.689,3.689,0,0,0-3.151-2.2,11.924,11.924,0,0,0-9.685,4.359,16.173,16.173,0,0,0-2.567,4.393q-0.973,2.464-2.256,6.1a23.562,23.562,0,0,0-1.439,5.984Q354.04,336.943,354.042,338.611Z" transform="translate(-4.461 0.03)"/><path class="cls-3" d="M434.017,320.963a13.652,13.652,0,0,1,2.325.232,6.921,6.921,0,0,1,2.4.893,6.122,6.122,0,0,1,1.86,1.781,5.175,5.175,0,0,1,.775,2.984,14.608,14.608,0,0,1-.349,3.139,6.764,6.764,0,0,1-1.4,2.867,7.864,7.864,0,0,1-2.983,2.131,13.1,13.1,0,0,1-5.192.852H399.3a7.592,7.592,0,0,1-3.953-.891,6.83,6.83,0,0,1-2.286-2.17,7.145,7.145,0,0,1-1.046-2.75,17.066,17.066,0,0,1-.232-2.635,10.532,10.532,0,0,1,.232-2.133,4.917,4.917,0,0,1,1.007-2.092,5.56,5.56,0,0,1,2.286-1.588,10.668,10.668,0,0,1,3.991-.621h34.718Z" transform="translate(-4.461 0.03)"/><path class="cls-3" d="M488.573,361.453q0-1.011.155-2.879t0.465-4.281q0.309-2.411.7-5.1t0.775-5.33q0.852-6.229,2.093-13.387H491.6a22,22,0,0,0-2.131,3.51q-1.2,2.338-3.371,6.861t-5.541,11.736q-3.371,7.213-8.718,17.668a9.151,9.151,0,0,1-3.6,4.176,9.522,9.522,0,0,1-4.534,1.09,8.933,8.933,0,0,1-5.115-1.316,8.6,8.6,0,0,1-2.983-3.535,16.506,16.506,0,0,1-1.4-5.039,47.517,47.517,0,0,1-.349-5.83q0-3.2.388-7.566t1.007-9.205q0.62-4.837,1.821-11.041t2.092-10.816q0.89-4.611,1.821-8.447t1.705-6.258a31.807,31.807,0,0,1,1.473-3.988,7.326,7.326,0,0,1,1.588-2.307,4.5,4.5,0,0,1,2.131-1.1,15.213,15.213,0,0,1,3.177-.273,41.8,41.8,0,0,1,4.611.2,4.382,4.382,0,0,1,2.48.938,3.287,3.287,0,0,1,.969,2.15,37.235,37.235,0,0,1,.155,3.834q0,1.327-.116,3.051t-0.349,3.676q-0.156,1.957-.465,3.988-0.543,3.914-.62,4.068-1.086,5.32-2.248,11.889l0.853,0.939q0.155-.234,2.054-4.146t4.107-7.742q2.208-3.832,4.766-8.02t4.882-7.391a27.345,27.345,0,0,1,4.766-5.318,9.042,9.042,0,0,1,6.006-2.111,8.492,8.492,0,0,1,5.58,1.916,6.645,6.645,0,0,1,2.325,5.436,41.3,41.3,0,0,1-.388,5.787,47.9,47.9,0,0,1-.93,5.32q-0.543,2.033-1.24,5.006-0.543,2.581-1.937,7.43a18.6,18.6,0,0,0-.465,2.27,4.745,4.745,0,0,0-.078.625l0.853,0.939q0.154-.234,2.17-4.107t4.378-7.7q2.363-3.835,5.037-8.057t5-7.432a37.878,37.878,0,0,1,4.495-5.279,7.657,7.657,0,0,1,5.5-2.15,9.881,9.881,0,0,1,6.161,1.916,6.428,6.428,0,0,1,2.519,5.436,92.446,92.446,0,0,1-.542,10.246q-0.543,4.849-1.627,10.717t-1.627,10.678A90.986,90.986,0,0,0,537.55,348a18.438,18.438,0,0,0,1.085,6.885q1.084,2.657,2.635,2.658a9.288,9.288,0,0,0,3.41-.7,26.461,26.461,0,0,0,3.643-1.8,29.763,29.763,0,0,0,3.642-2.543q1.782-1.444,3.41-3.012a88.6,88.6,0,0,0,7.517-8.133l1.317,18.371q-3.411,2.634-6.781,5.455a58.915,58.915,0,0,1-7.129,5.115,38.977,38.977,0,0,1-8.253,3.76,32.634,32.634,0,0,1-10.152,1.467,6.585,6.585,0,0,1-4.688-1.783,12.6,12.6,0,0,1-3.061-4.973,33.283,33.283,0,0,1-1.666-7.518,81.466,81.466,0,0,1-.5-9.416q0-4.925.349-10.441t0.969-11.145h-1.162L506.4,370.053a10.76,10.76,0,0,1-4.5,4.352,13.848,13.848,0,0,1-5.734,1.115,5.7,5.7,0,0,1-3.952-1.316,8.706,8.706,0,0,1-2.286-3.383,17.6,17.6,0,0,1-1.085-4.553A44.123,44.123,0,0,1,488.573,361.453Z" transform="translate(-4.461 0.03)"/><path class="cls-3" d="M582.536,375.52a28.238,28.238,0,0,1-12.663-2.682,26.29,26.29,0,0,1-9.045-7.217,31.147,31.147,0,0,1-5.427-10.49,42.789,42.789,0,0,1-1.809-12.5,39.653,39.653,0,0,1,1.619-10.211q1.619-5.927,3.353-10.516a48.763,48.763,0,0,1,4.354-8.758,34.838,34.838,0,0,1,6.128-7.342,28.306,28.306,0,0,1,7.862-5.049,24.216,24.216,0,0,1,9.673-1.875,22.819,22.819,0,0,1,8.068,1.395,19.726,19.726,0,0,1,6.479,3.908,17.706,17.706,0,0,1,4.306,6.076,19.756,19.756,0,0,1,1.552,7.971,22.617,22.617,0,0,1-3.146,10.533,42.175,42.175,0,0,1-7.339,10,46.2,46.2,0,0,1-9.979,7.426,54.053,54.053,0,0,1-12.542,5.078,23.979,23.979,0,0,0,2.294,3.41,10.281,10.281,0,0,0,2.294,2.121,7.708,7.708,0,0,0,2.45,1.061,11.936,11.936,0,0,0,2.762.3,29.406,29.406,0,0,0,9.8-1.818,64.381,64.381,0,0,0,10.036-4.547,85.246,85.246,0,0,0,9.222-5.947,78.745,78.745,0,0,0,7.362-6.1l10,10.154a103.185,103.185,0,0,1-14.492,12.848q-3.333,2.4-7.168,4.711a64.222,64.222,0,0,1-8.06,4.109,54.652,54.652,0,0,1-8.757,2.871A39.48,39.48,0,0,1,582.536,375.52ZM572.19,338.611a15.736,15.736,0,0,0,6.106-1.4,27.6,27.6,0,0,0,6.145-3.6A29.354,29.354,0,0,0,590,327.7q2.723-3.712,2.723-6.137a11.006,11.006,0,0,0-1.283-5.607,3.689,3.689,0,0,0-3.151-2.2,11.924,11.924,0,0,0-9.685,4.359,16.173,16.173,0,0,0-2.567,4.393q-0.973,2.464-2.256,6.1a23.562,23.562,0,0,0-1.439,5.984Q572.189,336.943,572.19,338.611Z" transform="translate(-4.461 0.03)"/><path class="cls-3" d="M738.565,356.316a73.154,73.154,0,0,1-4.766,5.877,58.554,58.554,0,0,1-6.7,6.426,41.966,41.966,0,0,1-7.982,5.174,19.032,19.032,0,0,1-8.524,2.115,11.984,11.984,0,0,1-8.585-3.26,26.539,26.539,0,0,1-5.937-9.475,37.681,37.681,0,0,1-4.609,4.371,41.005,41.005,0,0,1-5.976,4.027,38.626,38.626,0,0,1-6.758,2.953,22.476,22.476,0,0,1-7.03,1.15,18.067,18.067,0,0,1-7.246-1.525,18.843,18.843,0,0,1-6.238-4.377,21.416,21.416,0,0,1-4.34-6.959,24.958,24.958,0,0,1-1.627-9.264,45.748,45.748,0,0,1,1.637-11.893,76.076,76.076,0,0,1,5.067-13.205,71.8,71.8,0,0,1,7.367-12.279,54.214,54.214,0,0,1,8.614-9.033A42.014,42.014,0,0,1,684.79,301a26.01,26.01,0,0,1,10.563-2.279,4.852,4.852,0,0,1,2.807.705,7.02,7.02,0,0,1,1.676,1.605q0.661,0.9,1.286,1.762a3.615,3.615,0,0,0,1.56,1.252,7.09,7.09,0,0,0,1.91.51,16.632,16.632,0,0,0,1.988.117c0.571,0,1.155-.012,1.753-0.039s1.183-.039,1.754-0.039a9.677,9.677,0,0,1,2.183.234,3.665,3.665,0,0,1,1.791,1.018,5.2,5.2,0,0,1,1.2,2.193,13.793,13.793,0,0,1,.426,3.838,49.057,49.057,0,0,1-.775,8.219q-0.776,4.515-1.775,9.254t-2.28,10.8a51.053,51.053,0,0,0-1.279,10.223,18.473,18.473,0,0,0,.659,5.553,2.706,2.706,0,0,0,2.829,2,8.276,8.276,0,0,0,3.41-.8,21.329,21.329,0,0,0,3.6-2.113,40.883,40.883,0,0,0,3.643-2.957q1.819-1.652,3.448-3.42a118.335,118.335,0,0,0,7.672-9.371Zm-66.484-6.07a26.985,26.985,0,0,0,.271,3.877,11.742,11.742,0,0,0,.971,3.355,6.558,6.558,0,0,0,1.862,2.4,4.61,4.61,0,0,0,2.949.92,6.985,6.985,0,0,0,5.2-2.5,24.317,24.317,0,0,0,4.037-6.006,43.216,43.216,0,0,0,2.756-7.256,44.425,44.425,0,0,0,1.359-6.242l5.779-25.193a13.277,13.277,0,0,0-6.2,1.574,23.176,23.176,0,0,0-5.7,4.264,38.209,38.209,0,0,0-4.921,6.146,56.5,56.5,0,0,0-4.417,8.527,54.5,54.5,0,0,0-3.061,8.91A32.037,32.037,0,0,0,672.082,350.246Z" transform="translate(-4.461 0.03)"/><path class="cls-3" d="M771.318,338.1q0-.155-0.212-2.713t-0.493-6.818q-0.283-4.263-.669-9.8t-0.775-11.625q-0.388-6.082-.775-12.4t-0.669-12.09q-0.281-5.771-.458-10.617t-0.176-8.021a18.294,18.294,0,0,1,1.15-7.284,9.238,9.238,0,0,1,2.783-3.759,7,7,0,0,1,3.412-1.395,29.342,29.342,0,0,1,3.117-.194,12.105,12.105,0,0,1,4.688.775,6.48,6.48,0,0,1,2.867,2.286,9.253,9.253,0,0,1,1.434,3.681A27.988,27.988,0,0,1,786.93,263l3.41,92.141,50.5-96.952a10.711,10.711,0,0,1,1.861-3.565,14.043,14.043,0,0,1,3.181-2.983A16.019,16.019,0,0,1,850,249.629a14.885,14.885,0,0,1,4.656-.736,4.968,4.968,0,0,1,4.382,2.441,11.528,11.528,0,0,1,1.591,6.393,26.207,26.207,0,0,1-1.472,7.439q-1.474,4.651-3.914,10.462t-5.7,12.477q-3.254,6.665-6.781,13.563t-7.129,13.678q-3.6,6.782-6.858,12.748a16.159,16.159,0,0,0-1.4,3.719,16.588,16.588,0,0,0-.465,3.875,14.768,14.768,0,0,0,1.163,5.734,13.616,13.616,0,0,0,3.6,4.961,17.858,17.858,0,0,0,6.2,3.447,27.852,27.852,0,0,0,8.951,1.279,8.232,8.232,0,0,0,2.751-.543,22.157,22.157,0,0,0,3.139-1.434q1.627-.891,3.332-2.053t3.333-2.326q3.719-2.789,7.672-6.354l-1.782,16.113a67.576,67.576,0,0,1-12.826,8.35,27.4,27.4,0,0,1-11.973,3.125,28,28,0,0,1-9.338-1.434,19.851,19.851,0,0,1-6.936-4.068,16.984,16.984,0,0,1-4.339-6.355,22.326,22.326,0,0,1-1.473-8.291,29.922,29.922,0,0,1,.465-5.037,194.515,194.515,0,0,1-8.585,17.861,69.072,69.072,0,0,1-7.73,11.471,25.737,25.737,0,0,1-7.227,6.121,14.894,14.894,0,0,1-6.914,1.822,16.136,16.136,0,0,1-7.594-1.566,12.16,12.16,0,0,1-4.688-4.344,20.241,20.241,0,0,1-2.558-6.613,64.093,64.093,0,0,1-1.162-8.285q-0.349-4.45-.5-9.332T771.318,338.1Z" transform="translate(-4.461 0.03)"/><path class="cls-3" d="M884.07,375.52a28.238,28.238,0,0,1-12.663-2.682,26.29,26.29,0,0,1-9.045-7.217,31.147,31.147,0,0,1-5.427-10.49,42.789,42.789,0,0,1-1.809-12.5,39.653,39.653,0,0,1,1.619-10.211q1.619-5.927,3.353-10.516a48.763,48.763,0,0,1,4.354-8.758,34.838,34.838,0,0,1,6.128-7.342,28.306,28.306,0,0,1,7.862-5.049,24.216,24.216,0,0,1,9.673-1.875,22.819,22.819,0,0,1,8.068,1.395,19.723,19.723,0,0,1,6.479,3.908,17.712,17.712,0,0,1,4.306,6.076,19.756,19.756,0,0,1,1.552,7.971,22.616,22.616,0,0,1-3.146,10.533,42.189,42.189,0,0,1-7.339,10,46.213,46.213,0,0,1-9.979,7.426,54.053,54.053,0,0,1-12.542,5.078,23.979,23.979,0,0,0,2.294,3.41A10.281,10.281,0,0,0,880.1,356.8a7.708,7.708,0,0,0,2.45,1.061,11.936,11.936,0,0,0,2.762.3,29.406,29.406,0,0,0,9.8-1.818,64.361,64.361,0,0,0,10.036-4.547,85.3,85.3,0,0,0,9.223-5.947,78.733,78.733,0,0,0,7.361-6.1l10,10.154a103.209,103.209,0,0,1-14.491,12.848q-3.334,2.4-7.169,4.711a64.188,64.188,0,0,1-8.06,4.109,54.652,54.652,0,0,1-8.757,2.871A39.48,39.48,0,0,1,884.07,375.52Zm-10.346-36.908a15.736,15.736,0,0,0,6.106-1.4,27.6,27.6,0,0,0,6.145-3.6,29.354,29.354,0,0,0,5.562-5.91q2.723-3.712,2.723-6.137a11.006,11.006,0,0,0-1.283-5.607,3.689,3.689,0,0,0-3.151-2.2,11.924,11.924,0,0,0-9.685,4.359,16.173,16.173,0,0,0-2.567,4.393q-0.973,2.464-2.256,6.1a23.562,23.562,0,0,0-1.439,5.984Q873.723,336.943,873.724,338.611Z" transform="translate(-4.461 0.03)"/><path class="cls-3" d="M916.5,359.324q0-5.115.62-11.818t1.55-14.725q0.929-8.021,2.092-14.453t2.248-11a12.137,12.137,0,0,1,3.293-5.967,9.036,9.036,0,0,1,6.626-2.4q4.185,0,5.813,2.557a12.571,12.571,0,0,1,1.627,6.82,28.3,28.3,0,0,1-.232,3.139q-0.233,1.975-.581,4.34t-0.736,4.881q-0.388,2.52-.736,5.736t-0.581,4.8a18.264,18.264,0,0,0-.232,2.131h1.55q0.464-.853,1.473-2.752a47.323,47.323,0,0,0,2.324-5.463,46.962,46.962,0,0,1,2.829-6.316q1.51-2.748,2.828-5.27t2.4-4.455q1.084-1.937,1.628-2.867a14.019,14.019,0,0,1,5.657-5.736,15.889,15.889,0,0,1,7.052-1.549,7.158,7.158,0,0,1,6.161,3.254q2.284,3.255,2.286,8.99a19.436,19.436,0,0,1-.349,2.867q-0.35,2.016-.892,4.8t-1.2,7.207q-0.659,4.418-1.2,7.9t-0.892,6.9a62.118,62.118,0,0,0-.349,6.277,22.089,22.089,0,0,0,1.2,7.9q1.2,3.1,3.759,3.1a7.643,7.643,0,0,0,2.635-.7,10.06,10.06,0,0,0,3.255-1.627,24.227,24.227,0,0,1,3.564-2.557,38.219,38.219,0,0,0,5.192-3.1q6.2-3.952,14.8-9.687l-0.077,17.359-3.875,2.945q-0.466.387-7.285,4.029-9.842,5.271-12.321,6.354a72.838,72.838,0,0,1-7.517,3.1,26.5,26.5,0,0,1-8.138,1.24q-4.263,0-7.168-6.16T953.7,351.342a87.913,87.913,0,0,1,.62-10.035q0.62-5.388,1.55-11.586h-1.24l-20.3,40.3a10.061,10.061,0,0,1-3.487,4.34,8.561,8.561,0,0,1-4.494,1.162,8.127,8.127,0,0,1-8.1-5,17.391,17.391,0,0,1-1.395-5.191A50.406,50.406,0,0,1,916.5,359.324Z" transform="translate(-4.461 0.03)"/><path class="cls-3" d="M1015.81,375.52a28.488,28.488,0,0,1-12.6-2.635,26.934,26.934,0,0,1-9.087-7.051,30.44,30.44,0,0,1-5.539-10.23,39.188,39.188,0,0,1-1.872-12.09,45.8,45.8,0,0,1,1.558-10.771,90.152,90.152,0,0,1,3.39-10.965,52.6,52.6,0,0,1,4.518-8.951,35.865,35.865,0,0,1,6.232-7.479,28.816,28.816,0,0,1,7.908-5.113,23.748,23.748,0,0,1,9.58-1.9,26.925,26.925,0,0,1,8.7,1.357,20.9,20.9,0,0,1,6.844,3.758,17.354,17.354,0,0,1,4.453,5.7,15.978,15.978,0,0,1,1.607,7.092,18.216,18.216,0,0,1-.756,5.191,24.952,24.952,0,0,1-2.936,6.006,14.241,14.241,0,0,1-4.234,4.689,8.828,8.828,0,0,1-4.652,1.24q-3.92,0-5.062-1.937-1.878-3.023-1.184-5.348,0.229-1.239,1.389-5.734a13.338,13.338,0,0,0,.076-2.791,10.653,10.653,0,0,0-.385-3.1,1.622,1.622,0,0,0-1.7-1.238,9.42,9.42,0,0,0-5.4,1.51,13.644,13.644,0,0,0-3.819,3.953,32.709,32.709,0,0,0-3.125,6.9,67.22,67.22,0,0,0-2.2,7.479,37.108,37.108,0,0,0-.81,5.773q-0.155,2.751-.154,4.611a35.465,35.465,0,0,0,.5,5.813,15.722,15.722,0,0,0,2,5.541,13.434,13.434,0,0,0,3.9,4.184,10.565,10.565,0,0,0,6.172,1.666,18.365,18.365,0,0,0,8.215-2.285,58.082,58.082,0,0,0,9.029-5.773,83.617,83.617,0,0,0,8.641-7.672,101.09,101.09,0,0,0,7.051-7.9l5.348,8.988a101.222,101.222,0,0,1-12.555,14.8,76.333,76.333,0,0,1-6.238,5.424,54.4,54.4,0,0,1-7.051,4.688,42.022,42.022,0,0,1-7.672,3.334A26.385,26.385,0,0,1,1015.81,375.52Z" transform="translate(-4.461 0.03)"/><path class="cls-3" d="M1076.1,375.52a28.238,28.238,0,0,1-12.663-2.682,26.288,26.288,0,0,1-9.045-7.217,31.14,31.14,0,0,1-5.428-10.49,42.789,42.789,0,0,1-1.809-12.5,39.657,39.657,0,0,1,1.619-10.211q1.617-5.927,3.353-10.516a48.8,48.8,0,0,1,4.354-8.758,34.838,34.838,0,0,1,6.128-7.342,28.306,28.306,0,0,1,7.862-5.049,24.217,24.217,0,0,1,9.674-1.875,22.819,22.819,0,0,1,8.067,1.395,19.726,19.726,0,0,1,6.479,3.908,17.7,17.7,0,0,1,4.306,6.076,19.756,19.756,0,0,1,1.553,7.971,22.618,22.618,0,0,1-3.146,10.533,42.162,42.162,0,0,1-7.339,10,46.2,46.2,0,0,1-9.979,7.426,54.071,54.071,0,0,1-12.542,5.078,23.98,23.98,0,0,0,2.294,3.41,10.293,10.293,0,0,0,2.295,2.121,7.71,7.71,0,0,0,2.449,1.061,11.941,11.941,0,0,0,2.763.3,29.406,29.406,0,0,0,9.8-1.818,64.386,64.386,0,0,0,10.036-4.547,85.383,85.383,0,0,0,9.222-5.947,78.884,78.884,0,0,0,7.362-6.1l10,10.154a103.209,103.209,0,0,1-14.491,12.848q-3.333,2.4-7.168,4.711a64.255,64.255,0,0,1-8.06,4.109,54.684,54.684,0,0,1-8.757,2.871A39.481,39.481,0,0,1,1076.1,375.52Zm-10.346-36.908a15.738,15.738,0,0,0,6.106-1.4,27.614,27.614,0,0,0,6.146-3.6,29.367,29.367,0,0,0,5.562-5.91q2.722-3.712,2.723-6.137a11.011,11.011,0,0,0-1.283-5.607,3.69,3.69,0,0,0-3.15-2.2,11.924,11.924,0,0,0-9.685,4.359,16.15,16.15,0,0,0-2.567,4.393q-0.973,2.464-2.256,6.1a23.562,23.562,0,0,0-1.439,5.984Q1065.755,336.943,1065.757,338.611Z" transform="translate(-4.461 0.03)"/><path class="cls-3" d="M1108.534,359.324q0-3.41.388-7.943t1.047-9.57q0.656-5.039,1.55-10.27t2.286-11.158q1.395-5.93,2.4-9.881a55.641,55.641,0,0,1,2.015-6.51,15.147,15.147,0,0,1,1.239-2.713,5.377,5.377,0,0,1,1.435-1.588,4.678,4.678,0,0,1,2.015-.775,19.22,19.22,0,0,1,2.983-.193,19.609,19.609,0,0,1,3.139.193,2.5,2.5,0,0,1,1.666.93,4.172,4.172,0,0,1,.658,2.131q0.117,1.395.117,3.8,0,2.868-.388,8.139a82.553,82.553,0,0,0-.232,9.221h0.853q1.548-3.1,3.874-8.137a44.247,44.247,0,0,1,4.883-8.369,26.618,26.618,0,0,1,5.812-5.619,12.755,12.755,0,0,1,7.518-2.285,8.381,8.381,0,0,1,2.867.5,7.425,7.425,0,0,1,2.441,1.434,6.81,6.81,0,0,1,1.666,2.285,7.292,7.292,0,0,1,.62,3.063,24.372,24.372,0,0,1-.388,3.68q-0.39,2.364-1.24,6.162t-1.24,6.238a26.719,26.719,0,0,0-.387,4.068,16.856,16.856,0,0,0,.542,4.648,8.656,8.656,0,0,0,1.434,2.984,5.027,5.027,0,0,0,2.015,1.588,6.112,6.112,0,0,0,2.364.465,18.691,18.691,0,0,0,7.207-1.549,46.733,46.733,0,0,0,6.819-3.488,64.822,64.822,0,0,0,7.13-5.113l-1.163,18.133q-2.016,1.318-4.572,2.945a57.721,57.721,0,0,1-5.463,3.061,40.623,40.623,0,0,1-6.045,2.4,21.537,21.537,0,0,1-6.394.969,16.7,16.7,0,0,1-9.377-2.363,17.189,17.189,0,0,1-5.656-6.2,31.421,31.421,0,0,1-3.1-8.6q-1.008-4.767-1.627-9.648H1141l-13.871,38.67a50.522,50.522,0,0,1-2.054,5,17,17,0,0,1-1.977,3.217,5.817,5.817,0,0,1-2.17,1.742,6.325,6.325,0,0,1-2.557.5,8.127,8.127,0,0,1-8.1-5,17.391,17.391,0,0,1-1.395-5.191A50.2,50.2,0,0,1,1108.534,359.324Z" transform="translate(-4.461 0.03)"/><path class="cls-3" d="M1265.151,315.771a41.486,41.486,0,0,1,3.371,9.492,51.612,51.612,0,0,1,1.124,11.275,43.484,43.484,0,0,1-1.008,9.223,47.52,47.52,0,0,1-2.905,8.99,43.7,43.7,0,0,1-4.65,8.137,33.123,33.123,0,0,1-6.276,6.586,29.681,29.681,0,0,1-7.711,4.418,24.354,24.354,0,0,1-8.912,1.627,21.815,21.815,0,0,1-11.663-2.982,24.837,24.837,0,0,1-7.943-7.789,34.53,34.53,0,0,1-4.533-10.85,52.8,52.8,0,0,1-1.434-12.244,54.167,54.167,0,0,1,2.557-17.629,38.437,38.437,0,0,1,7.323-12.865,33.86,33.86,0,0,1,11.663-8.6,37.015,37.015,0,0,1,15.5-3.139,40.963,40.963,0,0,1,13.795,2.285,52.515,52.515,0,0,1,12.05,6.123,51.408,51.408,0,0,1,10.462,9.648q4.843,5.813,9.028,11.082l-1.473,10.926a45.1,45.1,0,0,0-5.657-6.045q-3.565-3.255-7.556-7.207a63.7,63.7,0,0,0-7.865-6.7q-3.876-2.748-6.665-4.611Zm-23.945,44.869q2.634,0,5.114-2.674a25.256,25.256,0,0,0,4.34-6.742,43.986,43.986,0,0,0,2.983-9.842,54.508,54.508,0,0,0,1.124-10.268,38.047,38.047,0,0,0-.543-6.625,20.4,20.4,0,0,0-1.627-5.309,9.8,9.8,0,0,0-2.79-3.564,6.517,6.517,0,0,0-4.107-1.318,8.724,8.724,0,0,0-6.044,2.713,25.377,25.377,0,0,0-5.037,6.936,41.972,41.972,0,0,0-3.41,9.338,49.122,49.122,0,0,0-1.24,11.547,28.86,28.86,0,0,0,.62,6.121,15.764,15.764,0,0,0,1.938,5A9.717,9.717,0,0,0,1241.206,360.641Z" transform="translate(-4.461 0.03)"/><path class="cls-3" d="M1453.543,350.428a35.5,35.5,0,0,0-7.362,4.455q-3.565,2.769-7.207,6.061t-7.556,6.941a74.912,74.912,0,0,1-8.447,6.8,101.158,101.158,0,0,1-9.88,6,75.988,75.988,0,0,1-11.818,5.018,92.57,92.57,0,0,1-14.259,3.424,107.447,107.447,0,0,1-17.243,1.271,41.924,41.924,0,0,1-18.87-4.166,44.345,44.345,0,0,1-14.375-11.238,50.742,50.742,0,0,1-9.184-16.437,60.163,60.163,0,0,1-3.216-19.686,83.447,83.447,0,0,1,1.55-15.41,122.578,122.578,0,0,1,4.456-16.779,142.736,142.736,0,0,1,7.091-17.049,134.672,134.672,0,0,1,9.493-16.308,113.482,113.482,0,0,1,11.663-14.476,85.983,85.983,0,0,1,13.562-11.627,64.579,64.579,0,0,1,15.189-7.765,49.626,49.626,0,0,1,16.584-2.809,34.584,34.584,0,0,1,11.314,1.976,29.835,29.835,0,0,1,10.307,6.084,31.54,31.54,0,0,1,7.478,10.384,34.946,34.946,0,0,1,2.906,14.8,38.832,38.832,0,0,1-1.821,11.586,53.105,53.105,0,0,1-5,11.236,61.2,61.2,0,0,1-7.479,10.113,54.858,54.858,0,0,1-9.261,8.176,47.192,47.192,0,0,1-10.307,5.463,30.135,30.135,0,0,1-10.694,2.016q-7.052,0-10.539-1.9a5.95,5.95,0,0,1-3.487-5.465q0-.618-0.039-1.473c-0.026-.566-0.038-1.162-0.038-1.781a28.459,28.459,0,0,1,.154-2.906,11.061,11.061,0,0,1,.62-2.752,4.887,4.887,0,0,1,1.356-2.014,3.6,3.6,0,0,1,2.44-.775,4.46,4.46,0,0,1,1.628.271q0.7,0.272,1.55.58a16.8,16.8,0,0,0,2.054.582,14.216,14.216,0,0,0,3.061.271,25.384,25.384,0,0,0,10.036-2.17,29.915,29.915,0,0,0,9.145-6.123,32.351,32.351,0,0,0,6.664-9.414,27.727,27.727,0,0,0,2.6-12.051,23.235,23.235,0,0,0-.93-6.626,14.335,14.335,0,0,0-3.022-5.5,15.153,15.153,0,0,0-5.387-3.8,20.076,20.076,0,0,0-8.021-1.434,25.612,25.612,0,0,0-10.888,2.463,43.8,43.8,0,0,0-10.19,6.683,65.036,65.036,0,0,0-9.261,10,109.6,109.6,0,0,0-8.1,12.387,129.888,129.888,0,0,0-6.7,13.758,138.788,138.788,0,0,0-5.076,14.264,118.539,118.539,0,0,0-3.216,13.795,74.587,74.587,0,0,0-1.124,12.311,47.154,47.154,0,0,0,1.977,14.408,28.127,28.127,0,0,0,5.618,10.234,22.407,22.407,0,0,0,8.912,6.1,33.107,33.107,0,0,0,11.856,2.006,53.048,53.048,0,0,0,15.306-2.127,72.558,72.558,0,0,0,13.522-5.578,110.784,110.784,0,0,0,12.438-7.785q6-4.333,12.012-8.709t12.244-8.348a76.33,76.33,0,0,1,13.213-6.7v17.256Z" transform="translate(-4.461 0.03)"/><path class="cls-3" d="M1524.908,356.316a73.173,73.173,0,0,1-4.767,5.877,58.469,58.469,0,0,1-6.7,6.426,41.962,41.962,0,0,1-7.981,5.174,19.035,19.035,0,0,1-8.524,2.115,11.983,11.983,0,0,1-8.585-3.26,26.52,26.52,0,0,1-5.937-9.475,37.717,37.717,0,0,1-4.609,4.371,40.979,40.979,0,0,1-5.976,4.027,38.626,38.626,0,0,1-6.758,2.953,22.479,22.479,0,0,1-7.03,1.15,18.066,18.066,0,0,1-7.246-1.525,18.838,18.838,0,0,1-6.238-4.377,21.425,21.425,0,0,1-4.34-6.959,24.958,24.958,0,0,1-1.627-9.264,45.768,45.768,0,0,1,1.637-11.893,76.036,76.036,0,0,1,5.067-13.205,71.826,71.826,0,0,1,7.367-12.279,54.216,54.216,0,0,1,8.614-9.033,41.984,41.984,0,0,1,9.861-6.139,26.005,26.005,0,0,1,10.563-2.279,4.852,4.852,0,0,1,2.807.705,7.02,7.02,0,0,1,1.676,1.605q0.661,0.9,1.286,1.762a3.61,3.61,0,0,0,1.56,1.252,7.082,7.082,0,0,0,1.909.51,16.638,16.638,0,0,0,1.988.117c0.571,0,1.155-.012,1.753-0.039s1.184-.039,1.755-0.039a9.678,9.678,0,0,1,2.184.234,3.664,3.664,0,0,1,1.79,1.018,5.192,5.192,0,0,1,1.2,2.193,13.8,13.8,0,0,1,.426,3.838,49.052,49.052,0,0,1-.774,8.219q-0.776,4.515-1.775,9.254t-2.28,10.8a51.048,51.048,0,0,0-1.278,10.223,18.475,18.475,0,0,0,.658,5.553,2.707,2.707,0,0,0,2.829,2,8.28,8.28,0,0,0,3.41-.8,21.367,21.367,0,0,0,3.6-2.113,40.8,40.8,0,0,0,3.642-2.957q1.821-1.652,3.449-3.42a118.444,118.444,0,0,0,7.672-9.371Zm-66.483-6.07a26.986,26.986,0,0,0,.271,3.877,11.726,11.726,0,0,0,.972,3.355,6.558,6.558,0,0,0,1.862,2.4,4.61,4.61,0,0,0,2.949.92,6.986,6.986,0,0,0,5.2-2.5,24.357,24.357,0,0,0,4.037-6.006,43.3,43.3,0,0,0,2.756-7.256,44.484,44.484,0,0,0,1.358-6.242l5.779-25.193a13.274,13.274,0,0,0-6.2,1.574,23.16,23.16,0,0,0-5.7,4.264,38.236,38.236,0,0,0-4.921,6.146,56.453,56.453,0,0,0-4.417,8.527,54.509,54.509,0,0,0-3.062,8.91A32.007,32.007,0,0,0,1458.425,350.246Zm32.78-100.656q-2.791,6.277-5.27,11.935-1.087,2.4-2.209,4.921t-2.131,4.844q-1.008,2.325-1.937,4.339t-1.55,3.41a26.007,26.007,0,0,1-3.255,5.656,11.716,11.716,0,0,1-3.294,2.945,8.9,8.9,0,0,1-3.293,1.123,27.154,27.154,0,0,1-3.255.193,3.525,3.525,0,0,1-1.744-.5,5.612,5.612,0,0,1-1.627-1.434,7.832,7.832,0,0,1-1.2-2.209,7.413,7.413,0,0,1-.388-2.906,9.079,9.079,0,0,1,.853-2.945l14.182-25.5q2.325-4.028,4.185-7.13a33.02,33.02,0,0,1,3.759-5.192,13.025,13.025,0,0,1,4.3-3.177,14.283,14.283,0,0,1,5.89-1.085,11.32,11.32,0,0,1,5.657,1.278,10.192,10.192,0,0,1,3.72,3.759,25.316,25.316,0,0,1,2.479,6.083q1.006,3.6,1.86,8.254,0.7,2.635,1.123,4.262t0.775,2.867q0.349,1.241.62,2.325t0.658,2.635q0.387,1.551.931,3.759t1.472,5.7a12.17,12.17,0,0,1,.155,2.713,9.343,9.343,0,0,1-2.558,6.2,8.9,8.9,0,0,1-6.819,2.557,8.64,8.64,0,0,1-2.828-.465,5.966,5.966,0,0,1-2.441-1.627,9.808,9.808,0,0,1-1.86-3.139,17.58,17.58,0,0,1-1.007-5q-0.854-7.981-1.628-13.562t-1.239-9.145Q1491.669,252.147,1491.205,249.59Z" transform="translate(-4.461 0.03)"/><path class="cls-3" d="M1518.716,359.324q0-5.115.62-11.818t1.55-14.725q0.93-8.021,2.093-14.453t2.247-11a12.138,12.138,0,0,1,3.294-5.967,9.035,9.035,0,0,1,6.626-2.4q4.184,0,5.812,2.557a12.571,12.571,0,0,1,1.628,6.82,28.538,28.538,0,0,1-.232,3.139q-0.233,1.975-.581,4.34t-0.736,4.881q-0.39,2.52-.736,5.736t-0.581,4.8a18.264,18.264,0,0,0-.232,2.131h1.55q0.464-.853,1.472-2.752a47.3,47.3,0,0,0,2.325-5.463,46.962,46.962,0,0,1,2.829-6.316q1.51-2.748,2.828-5.27t2.4-4.455q1.084-1.937,1.627-2.867a14.03,14.03,0,0,1,5.657-5.736,15.9,15.9,0,0,1,7.053-1.549,7.158,7.158,0,0,1,6.16,3.254q2.285,3.255,2.286,8.99a19.436,19.436,0,0,1-.349,2.867q-0.349,2.016-.891,4.8t-1.2,7.207q-0.659,4.418-1.2,7.9t-0.892,6.9a62.118,62.118,0,0,0-.349,6.277,22.089,22.089,0,0,0,1.2,7.9q1.2,3.1,3.759,3.1a7.643,7.643,0,0,0,2.635-.7,10.06,10.06,0,0,0,3.255-1.627,24.164,24.164,0,0,1,3.564-2.557,38.219,38.219,0,0,0,5.192-3.1q6.2-3.952,14.8-9.687l-0.078,17.359-3.874,2.945q-0.466.387-7.285,4.029-9.842,5.271-12.321,6.354a72.719,72.719,0,0,1-7.518,3.1,26.5,26.5,0,0,1-8.137,1.24q-4.263,0-7.168-6.16t-2.906-18.018a87.913,87.913,0,0,1,.62-10.035q0.618-5.388,1.55-11.586h-1.24l-20.3,40.3a10.061,10.061,0,0,1-3.487,4.34,8.563,8.563,0,0,1-4.494,1.162,8.127,8.127,0,0,1-8.1-5,17.391,17.391,0,0,1-1.395-5.191A50.2,50.2,0,0,1,1518.716,359.324Z" transform="translate(-4.461 0.03)"/><path class="cls-3" d="M1618.023,375.52a28.481,28.481,0,0,1-12.6-2.635,26.928,26.928,0,0,1-9.088-7.051,30.438,30.438,0,0,1-5.538-10.23,39.159,39.159,0,0,1-1.872-12.09,45.8,45.8,0,0,1,1.557-10.771,90.152,90.152,0,0,1,3.39-10.965,52.676,52.676,0,0,1,4.518-8.951,35.9,35.9,0,0,1,6.232-7.479,28.816,28.816,0,0,1,7.908-5.113,23.753,23.753,0,0,1,9.581-1.9,26.925,26.925,0,0,1,8.7,1.357,20.9,20.9,0,0,1,6.844,3.758,17.351,17.351,0,0,1,4.452,5.7,15.966,15.966,0,0,1,1.608,7.092,18.216,18.216,0,0,1-.756,5.191,24.952,24.952,0,0,1-2.936,6.006,14.262,14.262,0,0,1-4.234,4.689,8.829,8.829,0,0,1-4.653,1.24q-3.918,0-5.062-1.937-1.878-3.023-1.184-5.348,0.23-1.239,1.389-5.734a13.241,13.241,0,0,0,.077-2.791,10.616,10.616,0,0,0-.386-3.1,1.621,1.621,0,0,0-1.7-1.238,9.423,9.423,0,0,0-5.4,1.51,13.641,13.641,0,0,0-3.818,3.953,32.7,32.7,0,0,0-3.126,6.9,66.976,66.976,0,0,0-2.2,7.479,37,37,0,0,0-.811,5.773q-0.154,2.751-.153,4.611a35.568,35.568,0,0,0,.5,5.813,15.741,15.741,0,0,0,2,5.541,13.434,13.434,0,0,0,3.9,4.184,10.566,10.566,0,0,0,6.173,1.666,18.369,18.369,0,0,0,8.215-2.285,58.03,58.03,0,0,0,9.028-5.773,83.415,83.415,0,0,0,8.641-7.672,101.116,101.116,0,0,0,7.052-7.9l5.348,8.988a101.282,101.282,0,0,1-12.555,14.8,76.333,76.333,0,0,1-6.238,5.424,54.477,54.477,0,0,1-7.052,4.688,41.993,41.993,0,0,1-7.672,3.334A26.38,26.38,0,0,1,1618.023,375.52Z" transform="translate(-4.461 0.03)"/><path class="cls-3" d="M1678.317,375.52a28.238,28.238,0,0,1-12.663-2.682,26.288,26.288,0,0,1-9.045-7.217,31.14,31.14,0,0,1-5.428-10.49,42.789,42.789,0,0,1-1.809-12.5,39.657,39.657,0,0,1,1.619-10.211q1.617-5.927,3.353-10.516a48.8,48.8,0,0,1,4.354-8.758,34.838,34.838,0,0,1,6.128-7.342,28.306,28.306,0,0,1,7.862-5.049,24.217,24.217,0,0,1,9.674-1.875,22.819,22.819,0,0,1,8.067,1.395,19.726,19.726,0,0,1,6.479,3.908,17.7,17.7,0,0,1,4.306,6.076,19.756,19.756,0,0,1,1.553,7.971,22.618,22.618,0,0,1-3.146,10.533,42.162,42.162,0,0,1-7.339,10,46.2,46.2,0,0,1-9.979,7.426,54.071,54.071,0,0,1-12.542,5.078,23.98,23.98,0,0,0,2.294,3.41,10.293,10.293,0,0,0,2.295,2.121,7.71,7.71,0,0,0,2.449,1.061,11.941,11.941,0,0,0,2.763.3,29.406,29.406,0,0,0,9.8-1.818,64.386,64.386,0,0,0,10.036-4.547,85.383,85.383,0,0,0,9.222-5.947,78.884,78.884,0,0,0,7.362-6.1l10,10.154a103.209,103.209,0,0,1-14.491,12.848q-3.333,2.4-7.168,4.711a64.255,64.255,0,0,1-8.06,4.109,54.684,54.684,0,0,1-8.757,2.871A39.481,39.481,0,0,1,1678.317,375.52Zm-10.346-36.908a15.738,15.738,0,0,0,6.106-1.4,27.614,27.614,0,0,0,6.146-3.6,29.367,29.367,0,0,0,5.562-5.91q2.722-3.712,2.723-6.137a11.011,11.011,0,0,0-1.283-5.607,3.69,3.69,0,0,0-3.15-2.2,11.924,11.924,0,0,0-9.685,4.359,16.15,16.15,0,0,0-2.567,4.393q-0.973,2.464-2.256,6.1a23.562,23.562,0,0,0-1.439,5.984Q1667.97,336.943,1667.972,338.611Z" transform="translate(-4.461 0.03)"/><path class="cls-3" d="M1710.748,359.324q0-3.41.388-7.943t1.047-9.57q0.656-5.039,1.55-10.27t2.286-11.158q1.395-5.93,2.4-9.881a55.641,55.641,0,0,1,2.015-6.51,15.147,15.147,0,0,1,1.239-2.713,5.377,5.377,0,0,1,1.435-1.588,4.678,4.678,0,0,1,2.015-.775,19.22,19.22,0,0,1,2.983-.193,19.609,19.609,0,0,1,3.139.193,2.5,2.5,0,0,1,1.666.93,4.172,4.172,0,0,1,.658,2.131q0.117,1.395.117,3.8,0,2.868-.388,8.139a82.553,82.553,0,0,0-.232,9.221h0.853q1.548-3.1,3.874-8.137a44.247,44.247,0,0,1,4.883-8.369,26.618,26.618,0,0,1,5.812-5.619,12.755,12.755,0,0,1,7.518-2.285,8.381,8.381,0,0,1,2.867.5,7.425,7.425,0,0,1,2.441,1.434,6.81,6.81,0,0,1,1.666,2.285,7.292,7.292,0,0,1,.62,3.063,24.372,24.372,0,0,1-.388,3.68q-0.39,2.364-1.24,6.162t-1.24,6.238a26.719,26.719,0,0,0-.387,4.068,16.856,16.856,0,0,0,.542,4.648,8.656,8.656,0,0,0,1.434,2.984,5.027,5.027,0,0,0,2.015,1.588,6.112,6.112,0,0,0,2.364.465,18.691,18.691,0,0,0,7.207-1.549,46.733,46.733,0,0,0,6.819-3.488,64.822,64.822,0,0,0,7.13-5.113l-1.163,18.133q-2.016,1.318-4.572,2.945a57.721,57.721,0,0,1-5.463,3.061,40.623,40.623,0,0,1-6.045,2.4,21.537,21.537,0,0,1-6.394.969,16.7,16.7,0,0,1-9.377-2.363,17.189,17.189,0,0,1-5.656-6.2,31.421,31.421,0,0,1-3.1-8.6q-1.008-4.767-1.627-9.648h-1.24l-13.871,38.67a50.522,50.522,0,0,1-2.054,5,17,17,0,0,1-1.977,3.217,5.817,5.817,0,0,1-2.17,1.742,6.325,6.325,0,0,1-2.557.5,8.127,8.127,0,0,1-8.1-5,17.391,17.391,0,0,1-1.395-5.191A50.2,50.2,0,0,1,1710.748,359.324Z" transform="translate(-4.461 0.03)"/><path class="cls-3" d="M1811.027,362.531a4.451,4.451,0,0,0-.271,1.336,15.583,15.583,0,0,1-.542,2.529,20.3,20.3,0,0,1-1.2,3.094,9.715,9.715,0,0,1-2.286,2.986,12.394,12.394,0,0,1-3.836,2.285,16,16,0,0,1-5.812.914,18.781,18.781,0,0,1-5.192-.668,10.66,10.66,0,0,1-3.991-2.074,9.448,9.448,0,0,1-2.6-3.584,13.206,13.206,0,0,1-.93-5.2,15.474,15.474,0,0,1,.813-4.957,12.2,12.2,0,0,1,2.519-4.322,12.038,12.038,0,0,1,4.417-3.023,16.767,16.767,0,0,1,6.433-1.125q6.044,0,9.3,2.953t3.255,8.436A0.911,0.911,0,0,1,1811.027,362.531Zm-13.484-26.689q0.773-7.98,2.325-16.467t3.883-16.885q2.332-8.4,4.637-16.689l4.418-15.906,3.982-14.336q1.868-6.721,3.358-12.1a14.785,14.785,0,0,1,7.5-9.571,17.386,17.386,0,0,1,5.174-1.743,31.259,31.259,0,0,1,5.258-.465,9.308,9.308,0,0,1,2.443.31,4.327,4.327,0,0,1,1.957,1.124,5.209,5.209,0,0,1,1.241,2.247,13.254,13.254,0,0,1,.426,3.681,33.559,33.559,0,0,1-.193,3.414q-0.195,1.863-.658,4.438-2.678,8.915-5.435,18.089a177.307,177.307,0,0,1-7.27,19.549q-4.51,10.374-10.272,22.82t-12.853,28.488a3.236,3.236,0,0,1-.813,1.59,5.859,5.859,0,0,1-1.589,1.24,9.005,9.005,0,0,1-4.106,1.045,4.845,4.845,0,0,1-2.519-.619,2.235,2.235,0,0,1-1.047-2.092A6.434,6.434,0,0,1,1797.543,335.842Z" transform="translate(-4.461 0.03)"/></g><g class="cls-2"><path class="cls-3" d="M330.489,533.58h-4.583l16.8-38.629h3.818l16.8,38.629h-4.583L354.5,523.432h-19.75Zm5.729-13.749h16.75l-8.348-20.3Z" transform="translate(-4.461 0.03)"/><path class="cls-3" d="M490.895,527.688H491l12.658-32.736h4.256L492.859,533.58h-3.929l-14.677-38.629h4.365Z" transform="translate(-4.461 0.03)"/><path class="cls-3" d="M564.878,533.58h-3.929V494.951h3.929V533.58Z" transform="translate(-4.461 0.03)"/><path class="cls-3" d="M622.766,494.951h12.821a22.916,22.916,0,0,1,7.229,1.2,19.941,19.941,0,0,1,6.547,3.628,18.412,18.412,0,0,1,4.72,6.056,20.695,20.695,0,0,1,0,16.887,18.479,18.479,0,0,1-4.72,6.029,19.941,19.941,0,0,1-6.547,3.628,22.887,22.887,0,0,1-7.229,1.2H622.766V494.951Zm3.929,35.028h7.638A20.052,20.052,0,0,0,642,528.643a15.856,15.856,0,0,0,5.4-3.547,14.129,14.129,0,0,0,3.191-5.02,16.8,16.8,0,0,0,0-11.621,14.146,14.146,0,0,0-3.191-5.02,15.882,15.882,0,0,0-5.4-3.546,20.052,20.052,0,0,0-7.666-1.337h-7.638v31.427Z" transform="translate(-4.461 0.03)"/><path class="cls-3" d="M711.043,533.58H706.46l16.8-38.629h3.819l16.8,38.629h-4.583l-4.256-10.148H715.3Zm5.729-13.749h16.749l-8.348-20.3Z" transform="translate(-4.461 0.03)"/><path class="cls-3" d="M892.019,527.47a15.015,15.015,0,0,1-2.429,2.782,15.365,15.365,0,0,1-3.3,2.265,18.835,18.835,0,0,1-4.01,1.5,18.532,18.532,0,0,1-4.556.546,20.651,20.651,0,0,1-7.993-1.528A19.175,19.175,0,0,1,859.118,522.4a22.4,22.4,0,0,1,0-16.259A19.172,19.172,0,0,1,869.73,495.5a20.669,20.669,0,0,1,7.993-1.527,19.535,19.535,0,0,1,7.2,1.418,14.53,14.53,0,0,1,6.165,4.692l-3.437,2.564a9.418,9.418,0,0,0-1.637-1.855,12.015,12.015,0,0,0-2.373-1.637,14.871,14.871,0,0,0-2.865-1.146,11.075,11.075,0,0,0-3.055-.437,15.662,15.662,0,0,0-6.656,1.364,15.1,15.1,0,0,0-4.992,3.655,16.089,16.089,0,0,0-3.138,5.319,19.066,19.066,0,0,0,0,12.713,16.079,16.079,0,0,0,3.138,5.319,15.086,15.086,0,0,0,4.992,3.656,15.661,15.661,0,0,0,6.656,1.363,16.84,16.84,0,0,0,3.028-.272,12.584,12.584,0,0,0,2.946-.928,11.148,11.148,0,0,0,2.728-1.773,13.146,13.146,0,0,0,2.373-2.81Z" transform="translate(-4.461 0.03)"/><path class="cls-3" d="M984.225,514.266a21.15,21.15,0,0,1-1.528,8.13,19.177,19.177,0,0,1-10.611,10.639,21.666,21.666,0,0,1-15.986,0A19.175,19.175,0,0,1,945.486,522.4a22.4,22.4,0,0,1,0-16.259A19.172,19.172,0,0,1,956.1,495.5a21.679,21.679,0,0,1,15.986,0,19.175,19.175,0,0,1,10.611,10.64A21.145,21.145,0,0,1,984.225,514.266Zm-4.256,0a18.612,18.612,0,0,0-1.092-6.356,16.087,16.087,0,0,0-3.137-5.319,15.117,15.117,0,0,0-4.992-3.655,16.92,16.92,0,0,0-13.312,0,15.1,15.1,0,0,0-4.992,3.655,16.089,16.089,0,0,0-3.138,5.319,19.066,19.066,0,0,0,0,12.713,16.079,16.079,0,0,0,3.138,5.319,15.086,15.086,0,0,0,4.992,3.656,16.931,16.931,0,0,0,13.313,0,15.106,15.106,0,0,0,4.992-3.656,16.077,16.077,0,0,0,3.137-5.319A18.6,18.6,0,0,0,979.969,514.266Z" transform="translate(-4.461 0.03)"/><path class="cls-3" d="M1067.974,527.688h0.109V494.951h3.929V533.58H1067.1l-23.023-33.063h-0.109V533.58h-3.929V494.951h4.91Z" transform="translate(-4.461 0.03)"/><path class="cls-3" d="M1142.83,533.58H1138.9V498.553h-12.931v-3.6h29.79v3.6H1142.83V533.58Z" transform="translate(-4.461 0.03)"/><path class="cls-3" d="M1213.648,533.58h-3.928V494.951h3.928V533.58Z" transform="translate(-4.461 0.03)"/><path class="cls-3" d="M1300.017,527.688h0.109V494.951h3.929V533.58h-4.911l-23.023-33.063h-0.109V533.58h-3.929V494.951h4.91Z" transform="translate(-4.461 0.03)"/><path class="cls-3" d="M1390.095,519.176a24.619,24.619,0,0,1-.572,5.1,13.709,13.709,0,0,1-2.155,4.992,12.293,12.293,0,0,1-4.338,3.792,17.444,17.444,0,0,1-14.158,0,12.331,12.331,0,0,1-4.31-3.792,13.693,13.693,0,0,1-2.155-4.992,24.623,24.623,0,0,1-.573-5.1V494.951h3.929V518.74a18.263,18.263,0,0,0,.545,4.773,11.628,11.628,0,0,0,1.446,3.355,7.939,7.939,0,0,0,2.019,2.155,10.481,10.481,0,0,0,2.237,1.228,9.2,9.2,0,0,0,2.155.573,14.037,14.037,0,0,0,1.8.136,14.4,14.4,0,0,0,1.773-.136,9.2,9.2,0,0,0,2.183-.573,10.5,10.5,0,0,0,2.236-1.228,7.971,7.971,0,0,0,2.02-2.155,11.681,11.681,0,0,0,1.445-3.355,18.26,18.26,0,0,0,.546-4.773V494.951h3.928v24.225Z" transform="translate(-4.461 0.03)"/><path class="cls-3" d="M1447.22,533.58h-4.583l16.8-38.629h3.819l16.8,38.629h-4.583l-4.255-10.148h-19.751Zm5.729-13.749h16.75l-8.348-20.3Z" transform="translate(-4.461 0.03)"/></g></svg>